<mxfile host="app.diagrams.net" modified="2024-06-25T02:33:20.106Z" agent="Mozilla/5.0 (Windows NT 10.0; Win64; x64) AppleWebKit/537.36 (KHTML, like Gecko) Chrome/126.0.0.0 Safari/537.36" version="24.6.2" etag="Vbqjqcm7AaKS2Z_tEF2d" type="github">
  <diagram name="PÃ¡gina-1" id="KDZmUd07t2ndC1o9Phdn">
    <mxGraphModel>
      <root>
        <mxCell id="0" />
        <mxCell id="1" parent="0" />
      </root>
    </mxGraphModel>
  </diagram>
</mxfile>
